<svg width="30" height="30" viewBox="0 0 30 30" fill="none" xmlns="http://www.w3.org/2000/svg">
<path fill-rule="evenodd" clip-rule="evenodd" d="M15 10.475C8.6084 10.475 3.55108 14.9851 3.55108 20.4086C3.55108 20.6642 3.68627 21.7495 3.70809 22H2.01128C1.98591 21.7087 2.01128 20.7053 2.01128 20.4086C2.01128 14.0451 7.89507 9 15 9C22.1049 9 27.9887 14.0451 27.9887 20.4086C27.9887 20.7053 28.0141 21.7087 27.9887 22H26.2918C26.3137 21.7494 26.4489 20.6642 26.4489 20.4086C26.4489 14.9851 21.3916 10.475 15 10.475Z" fill="#111112"/>
<path fill-rule="evenodd" clip-rule="evenodd" d="M17 7.5C17 8.88071 15.8807 10 14.5 10C13.1193 10 12 8.88071 12 7.5C12 6.11929 13.1193 5 14.5 5C15.8807 5 17 6.11929 17 7.5ZM14.5 8.54769C15.0786 8.54769 15.5477 8.07862 15.5477 7.5C15.5477 6.92138 15.0786 6.45231 14.5 6.45231C13.9214 6.45231 13.4523 6.92138 13.4523 7.5C13.4523 8.07862 13.9214 8.54769 14.5 8.54769Z" fill="#111112"/>
<path fill-rule="evenodd" clip-rule="evenodd" d="M27.7612 22.3862H2.23881C1.85934 22.3862 1.55172 22.661 1.55172 23C1.55172 23.339 1.85934 23.6138 2.23881 23.6138H27.7612C28.1407 23.6138 28.4483 23.339 28.4483 23C28.4483 22.661 28.1407 22.3862 27.7612 22.3862ZM2.23881 21C1.00235 21 0 21.8954 0 23C0 24.1046 1.00235 25 2.23881 25H27.7612C28.9977 25 30 24.1046 30 23C30 21.8954 28.9977 21 27.7612 21H2.23881Z" fill="#111112"/>
</svg>
