<svg width="30" height="30" viewBox="0 0 30 30" fill="none" xmlns="http://www.w3.org/2000/svg">
<path d="M15.5249 20.2125C16.7681 20.2125 17.9604 19.7186 18.8395 18.8396C19.7185 17.9605 20.2124 16.7682 20.2124 15.525C20.2124 14.2818 19.7185 13.0895 18.8395 12.2104C17.9604 11.3314 16.7681 10.8375 15.5249 10.8375C14.2817 10.8375 13.0894 11.3314 12.2103 12.2104C11.3313 13.0895 10.8374 14.2818 10.8374 15.525C10.8374 16.7682 11.3313 17.9605 12.2103 18.8396C13.0894 19.7186 14.2817 20.2125 15.5249 20.2125ZM16.4624 3.33749C16.4624 3.08885 16.3636 2.8504 16.1878 2.67458C16.012 2.49877 15.7735 2.39999 15.5249 2.39999C15.2763 2.39999 15.0378 2.49877 14.862 2.67458C14.6862 2.8504 14.5874 3.08885 14.5874 3.33749V6.19687C12.4359 6.41379 10.4255 7.36749 8.89644 8.89653C7.3674 10.4256 6.41369 12.436 6.19678 14.5875H3.3374C3.08876 14.5875 2.85031 14.6863 2.67449 14.8621C2.49867 15.0379 2.3999 15.2764 2.3999 15.525C2.3999 15.7736 2.49867 16.0121 2.67449 16.1879C2.85031 16.3637 3.08876 16.4625 3.3374 16.4625H6.19678C6.41329 18.6143 7.36681 20.6252 8.89589 22.1546C10.425 23.684 12.4356 24.638 14.5874 24.855V27.7125C14.5874 27.9611 14.6862 28.1996 14.862 28.3754C15.0378 28.5512 15.2763 28.65 15.5249 28.65C15.7735 28.65 16.012 28.5512 16.1878 28.3754C16.3636 28.1996 16.4624 27.9611 16.4624 27.7125V24.855C18.6142 24.638 20.6248 23.684 22.1539 22.1546C23.683 20.6252 24.6365 18.6143 24.853 16.4625H27.7124C27.961 16.4625 28.1995 16.3637 28.3753 16.1879C28.5511 16.0121 28.6499 15.7736 28.6499 15.525C28.6499 15.2764 28.5511 15.0379 28.3753 14.8621C28.1995 14.6863 27.961 14.5875 27.7124 14.5875H24.853C24.6361 12.436 23.6824 10.4256 22.1534 8.89653C20.6243 7.36749 18.6139 6.41379 16.4624 6.19687V3.33749ZM15.5249 23.025C13.5358 23.025 11.6281 22.2348 10.2216 20.8283C8.81508 19.4218 8.0249 17.5141 8.0249 15.525C8.0249 13.5359 8.81508 11.6282 10.2216 10.2217C11.6281 8.81517 13.5358 8.02499 15.5249 8.02499C17.514 8.02499 19.4217 8.81517 20.8282 10.2217C22.2347 11.6282 23.0249 13.5359 23.0249 15.525C23.0249 17.5141 22.2347 19.4218 20.8282 20.8283C19.4217 22.2348 17.514 23.025 15.5249 23.025Z" fill="#111112"/>
</svg>
