<svg width="30" height="30" viewBox="0 0 30 30" fill="none" xmlns="http://www.w3.org/2000/svg">
<path fill-rule="evenodd" clip-rule="evenodd" d="M20.83 6.22062C20.7776 6.24489 20.7149 6.30762 20.7149 6.43415L20.7149 26.5582C20.7149 26.8993 20.9819 27.1807 21.3226 27.1987C21.6896 27.218 21.9977 26.9256 21.9977 26.5582L21.9977 19.7097C21.9977 19.3157 22.1696 18.9566 22.4299 18.7068C24.7073 16.5218 25.0796 14.2269 24.5646 12.096C24.0338 9.89915 22.539 7.82046 20.9782 6.26031C20.9355 6.21762 20.9066 6.21103 20.8955 6.20922C20.8801 6.20671 20.8576 6.20787 20.83 6.22062ZM20.1391 4.72641C20.771 4.43417 21.5625 4.51675 22.142 5.09598C23.8113 6.76447 25.5344 9.10036 26.1648 11.7093C26.8053 14.3597 26.2978 17.2331 23.6439 19.8229L23.6439 26.5582C23.6439 27.8688 22.5449 28.9115 21.2361 28.8426C20.0211 28.7787 19.0687 27.7749 19.0687 26.5582L19.0687 6.43415C19.0687 5.65047 19.5183 5.01346 20.1391 4.72641Z" fill="#111112"/>
<path fill-rule="evenodd" clip-rule="evenodd" d="M8.03881 6.31413C7.26262 6.31413 6.64101 6.95754 6.66775 7.73328L6.85599 13.192C6.88996 14.1772 7.66418 14.9766 8.64771 15.0422L9.58182 15.1045L9.58182 26.4315C9.58182 26.7878 9.8595 27.0822 10.2151 27.1032C10.6016 27.1259 10.9274 26.8186 10.9274 26.4315L10.9274 15.2744L12.1963 15.1998C13.1869 15.1415 13.9701 14.3382 14.0031 13.3465L14.1921 7.67841C14.2188 6.87475 13.5518 6.22047 12.7488 6.26273L12.5737 6.27195V7.25093C12.5737 7.70553 12.2052 8.07406 11.7506 8.07405C11.296 8.07405 10.9274 7.70553 10.9274 7.25093L10.9274 6.01163C10.9274 5.28199 11.4986 4.68 12.2272 4.64166L12.6623 4.61876C14.4289 4.52578 15.8963 5.9652 15.8374 7.73326L15.6485 13.4013C15.5902 15.1484 14.2786 16.5806 12.5737 16.8157L12.5737 26.4315C12.5737 27.7658 11.4505 28.8249 10.1185 28.7466C8.89268 28.6745 7.93557 27.6594 7.93557 26.4315L7.93557 16.5928C6.40437 16.2232 5.26668 14.8716 5.21072 13.2488L5.02248 7.79002C4.96363 6.08339 6.33118 4.66788 8.03881 4.66788L8.38593 4.66788C9.1436 4.66788 9.75781 5.28209 9.75781 6.03976L9.75781 7.60291C9.75781 8.05751 9.38928 8.42604 8.93468 8.42604C8.48009 8.42604 8.11156 8.05751 8.11156 7.60291L8.11156 6.31413L8.03881 6.31413Z" fill="#111112"/>
<path fill-rule="evenodd" clip-rule="evenodd" d="M8.93475 5.02018C9.38935 5.02018 9.75788 5.3887 9.75788 5.8433V11.827C9.75788 12.2816 9.38935 12.6502 8.93475 12.6502C8.48015 12.6502 8.11163 12.2816 8.11163 11.827V5.8433C8.11163 5.3887 8.48015 5.02018 8.93475 5.02018Z" fill="#111112"/>
<path fill-rule="evenodd" clip-rule="evenodd" d="M11.7507 5.02018C12.2053 5.02018 12.5738 5.3887 12.5738 5.8433V11.827C12.5738 12.2816 12.2053 12.6502 11.7507 12.6502C11.2961 12.6502 10.9275 12.2816 10.9275 11.827V5.8433C10.9275 5.3887 11.2961 5.02018 11.7507 5.02018Z" fill="#111112"/>
<path fill-rule="evenodd" clip-rule="evenodd" d="M10.3425 6.31414C10.0196 6.31414 9.75773 6.57597 9.75773 6.89896L8.11148 6.89896C8.11148 5.66678 9.11036 4.66789 10.3425 4.66789C11.5747 4.66789 12.5736 5.66678 12.5736 6.89896H10.9274C10.9274 6.57597 10.6655 6.31414 10.3425 6.31414Z" fill="#111112"/>
</svg>
